<?xml version="1.0" encoding="UTF-8"?>
<svg xmlns="http://www.w3.org/2000/svg" viewBox="0 0 860 540" width="860" height="540">
  <defs>
    <linearGradient id="bg" x1="0" y1="0" x2="0" y2="1">
      <stop offset="0" stop-color="#003b7a"/>
      <stop offset="1" stop-color="#001e40"/>
    </linearGradient>
    <linearGradient id="stripe" x1="0" y1="0" x2="1" y2="0">
      <stop offset="0" stop-color="#fff200"/>
      <stop offset="1" stop-color="#ffb300"/>
    </linearGradient>
  </defs>
  <rect width="860" height="540" rx="28" fill="url(#bg)"/>
  <rect x="0" y="0" width="860" height="78" fill="url(#stripe)"/>
  <text x="32" y="52" font-family="Arial Black,Arial,sans-serif" font-size="38" fill="#003b7a">CALIFORNIA</text>
  <text x="32" y="74" font-family="Arial,sans-serif" font-size="14" fill="#003b7a">COMMERCIAL DRIVER LICENSE · CLASS A</text>
  <rect x="40" y="120" width="220" height="280" rx="10" fill="#e8d5b1" stroke="#b58050" stroke-width="2"/>
  <text x="150" y="270" text-anchor="middle" font-family="Arial,sans-serif" font-size="18" fill="#5a3e20">PHOTO</text>
  <text x="150" y="295" text-anchor="middle" font-family="Arial,sans-serif" font-size="12" fill="#5a3e20">(sample only)</text>
  <g font-family="Arial,sans-serif" fill="#fff">
    <text x="300" y="140" font-size="14" fill="#ffcf55">DL</text>
    <text x="330" y="140" font-size="22" font-weight="bold">D1234567</text>
    <text x="300" y="180" font-size="14" fill="#ffcf55">CLASS</text>
    <text x="360" y="180" font-size="20" font-weight="bold">A</text>
    <text x="420" y="180" font-size="14" fill="#ffcf55">ENDORSEMENTS</text>
    <text x="580" y="180" font-size="20" font-weight="bold">H, T, N, P</text>
    <text x="300" y="220" font-size="14" fill="#ffcf55">LN</text>
    <text x="330" y="220" font-size="20" font-weight="bold">VEGA</text>
    <text x="300" y="245" font-size="14" fill="#ffcf55">FN</text>
    <text x="330" y="245" font-size="20" font-weight="bold">JORDAN A</text>
    <text x="300" y="285" font-size="14" fill="#ffcf55">DOB</text>
    <text x="345" y="285" font-size="18">03/14/1988</text>
    <text x="450" y="285" font-size="14" fill="#ffcf55">ISS</text>
    <text x="485" y="285" font-size="18">01/12/2024</text>
    <text x="600" y="285" font-size="14" fill="#ffcf55">EXP</text>
    <text x="635" y="285" font-size="18">01/12/2029</text>
    <text x="300" y="325" font-size="14" fill="#ffcf55">ADDRESS</text>
    <text x="300" y="345" font-size="16">1427 Harbor View Dr</text>
    <text x="300" y="365" font-size="16">Wilmington, CA 90744</text>
    <text x="300" y="400" font-size="14" fill="#ffcf55">SEX</text>
    <text x="335" y="400" font-size="16">M</text>
    <text x="390" y="400" font-size="14" fill="#ffcf55">HGT</text>
    <text x="430" y="400" font-size="16">6'01"</text>
    <text x="510" y="400" font-size="14" fill="#ffcf55">WGT</text>
    <text x="550" y="400" font-size="16">205 lb</text>
    <text x="630" y="400" font-size="14" fill="#ffcf55">EYES</text>
    <text x="680" y="400" font-size="16">BRN</text>
  </g>
  <rect x="40" y="440" width="780" height="70" rx="6" fill="rgba(255,255,255,.08)" stroke="rgba(255,255,255,.3)"/>
  <text x="56" y="470" font-family="Arial,sans-serif" font-size="14" fill="#fff200">RESTRICTIONS</text>
  <text x="56" y="495" font-family="Arial,sans-serif" font-size="14" fill="#fff">NONE</text>
  <text x="430" y="495" font-family="Arial,sans-serif" font-size="14" fill="#fff" text-anchor="middle" opacity="0.6">★ SAMPLE DOCUMENT — WOLFS TRUCKING APPLICATION TEST USE ONLY ★</text>
</svg>
