<?xml version="1.0" encoding="UTF-8"?>
<svg xmlns="http://www.w3.org/2000/svg" viewBox="0 0 860 540" width="860" height="540">
  <defs>
    <linearGradient id="tbg" x1="0" y1="0" x2="1" y2="1">
      <stop offset="0" stop-color="#1f2937"/>
      <stop offset="1" stop-color="#0f172a"/>
    </linearGradient>
  </defs>
  <rect width="860" height="540" rx="28" fill="url(#tbg)"/>
  <rect x="0" y="0" width="860" height="62" fill="#c41f2d"/>
  <text x="32" y="42" font-family="Arial Black,Arial,sans-serif" font-size="30" fill="#fff">TWIC · TRANSPORTATION WORKER IDENTIFICATION CREDENTIAL</text>
  <text x="540" y="58" font-family="Arial,sans-serif" font-size="12" fill="#fff">U.S. DEPARTMENT OF HOMELAND SECURITY</text>
  <rect x="40" y="90" width="220" height="300" rx="10" fill="#d1d5db" stroke="#9ca3af" stroke-width="2"/>
  <text x="150" y="255" text-anchor="middle" font-family="Arial,sans-serif" font-size="20" fill="#374151">PHOTO</text>
  <rect x="40" y="410" width="220" height="60" rx="6" fill="#000"/>
  <rect x="56" y="424" width="30" height="32" fill="#fff"/>
  <rect x="92" y="424" width="18" height="32" fill="#fff"/>
  <rect x="116" y="424" width="24" height="32" fill="#fff"/>
  <rect x="146" y="424" width="12" height="32" fill="#fff"/>
  <rect x="164" y="424" width="28" height="32" fill="#fff"/>
  <rect x="198" y="424" width="16" height="32" fill="#fff"/>
  <rect x="220" y="424" width="22" height="32" fill="#fff"/>
  <g font-family="Arial,sans-serif" fill="#fff">
    <text x="300" y="120" font-size="13" fill="#94a3b8">NAME</text>
    <text x="300" y="145" font-size="22" font-weight="bold">VEGA, JORDAN A</text>
    <text x="300" y="185" font-size="13" fill="#94a3b8">CARD NUMBER</text>
    <text x="300" y="210" font-size="20" font-family="monospace">TW-CA-7734-5588-2019</text>
    <text x="300" y="250" font-size="13" fill="#94a3b8">ISSUE DATE</text>
    <text x="300" y="272" font-size="18">02/08/2023</text>
    <text x="500" y="250" font-size="13" fill="#94a3b8">EXPIRATION</text>
    <text x="500" y="272" font-size="18">02/08/2028</text>
    <text x="300" y="310" font-size="13" fill="#94a3b8">AGENCY</text>
    <text x="300" y="332" font-size="16">TSA · Los Angeles / Long Beach Port</text>
    <text x="300" y="372" font-size="13" fill="#94a3b8">PRIVILEGES</text>
    <text x="300" y="394" font-size="14">Unescorted access to secure MTSA facilities</text>
  </g>
  <rect x="40" y="486" width="780" height="40" rx="6" fill="#c41f2d" opacity="0.85"/>
  <text x="430" y="511" font-family="Arial Black,Arial,sans-serif" font-size="16" fill="#fff" text-anchor="middle">★ SAMPLE DOCUMENT — WOLFS TRUCKING APPLICATION TEST USE ONLY ★</text>
</svg>
